<svg width="28" height="28" viewBox="0 0 28 28" fill="none" xmlns="http://www.w3.org/2000/svg">
<path d="M28 0H25.571V1.76462H23.1665V0H4.83349V1.76462H2.4287V0H0V28H2.4287V26.2354H4.83349V28H23.1665V26.2354H25.571V28H28V0ZM4.83349 24.0359H2.4287V20.6675H4.83349V24.0359ZM4.83349 18.468H2.4287V15.0996H4.83349V18.468ZM4.83349 12.9001H2.4287V9.53165H4.83349V12.9001ZM4.83349 7.33286H2.4287V3.96374H4.83349V7.33286ZM20.882 26.165H7.11801V14.9205H20.8823L20.882 26.165ZM20.882 13.0792H7.11801V1.83537H20.8823L20.882 13.0792ZM25.571 24.0359H23.1665V20.6675H25.571V24.0359ZM25.571 18.468H23.1665V15.0996H25.571V18.468ZM25.571 12.9001H23.1665V9.53165H25.571V12.9001ZM25.571 7.33286H23.1665V3.96374H25.571V7.33286Z" fill="#111111"/>
</svg>
