<svg width="2023" height="510" viewBox="0 0 2023 510" fill="none" xmlns="http://www.w3.org/2000/svg">
<path d="M512.873 0H468.381V32.1203H424.339V0H88.5345V32.1203H44.4863V0H0V509.668H44.4863V477.548H88.5345V509.668H424.339V477.548H468.381V509.668H512.873V0ZM88.5345 437.512H44.4863V376.198H88.5345V437.512ZM88.5345 336.163H44.4863V274.849H88.5345V336.163ZM88.5345 234.813H44.4863V173.499H88.5345V234.813ZM88.5345 133.476H44.4863V72.1497H88.5345V133.476ZM382.493 476.266H130.38V271.589H382.499L382.493 476.266ZM382.493 238.072H130.38V33.4082H382.499L382.493 238.072ZM468.381 437.512H424.339V376.198H468.381V437.512ZM468.381 336.163H424.339V274.849H468.381V336.163ZM468.381 234.813H424.339V173.499H468.381V234.813ZM468.381 133.476H424.339V72.1497H468.381V133.476Z" fill="#111111"/>
<path d="M758.882 150.939C788.926 150.939 814.074 161.736 834.327 183.328C854.58 204.92 864.706 231.503 864.706 263.076C864.706 294.265 854.602 319.888 834.394 339.945C814.186 360.002 789.552 370.03 760.491 370.03C730.984 370.03 706.081 359.21 685.784 337.57C665.487 315.929 655.338 291.434 655.338 264.083C655.338 243.642 659.943 224.641 669.153 207.079C678.362 189.517 690.97 175.77 706.975 165.837C722.981 155.904 740.284 150.939 758.882 150.939ZM759.687 171.959C745.023 171.959 731.096 176.062 717.908 184.267C704.719 192.472 694.458 203.556 687.126 217.52C679.794 231.483 676.128 247.006 676.128 264.087C676.128 289.422 684.287 309.959 700.606 325.698C716.924 341.436 736.618 349.305 759.688 349.306C775.067 349.306 789.329 345.275 802.473 337.214C815.617 329.153 825.855 318.189 833.187 304.322C840.519 290.456 844.185 276.708 844.185 263.08C844.185 246.19 840.519 230.884 833.187 217.161C825.855 203.437 815.527 192.474 802.204 184.269C788.881 176.064 774.709 171.96 759.687 171.959ZM1037.33 337.793C1045.38 323.398 1050.21 309.243 1051.82 295.328C1051.82 195.427 1051.82 145.573 1051.82 145.765H1033.04V233.862C1025.08 223.402 1016.18 215.605 1006.35 210.471C996.511 205.336 985.737 202.769 974.023 202.769C953.279 202.769 935.53 210.878 920.776 227.097C906.023 243.315 898.646 262.988 898.646 286.116C898.646 308.86 906.068 328.293 920.911 344.415C935.754 360.537 953.637 368.598 974.561 368.598C986.543 368.598 997.787 366.127 1008.29 361.185C1018.8 356.242 1028.48 348.445 1037.33 337.793ZM976.163 349.165C965.522 349.165 955.754 346.358 946.857 340.744C937.96 335.13 930.873 327.333 925.597 317.353C920.321 307.372 917.684 296.72 917.684 285.395C917.684 274.263 920.344 263.587 925.664 253.367C930.985 243.146 938.138 235.229 947.124 229.616C956.111 224.002 965.7 221.195 975.893 221.195C986.266 221.195 996.101 224.002 1005.4 229.616C1014.7 235.23 1021.85 242.859 1026.86 252.503C1031.87 262.147 1034.37 272.919 1034.37 284.82C1034.37 303.149 1028.74 318.456 1017.47 330.739C1006.21 343.023 992.436 349.165 976.163 349.165ZM1097.14 145.618C1101.43 145.618 1105.12 147.25 1108.21 150.512C1111.29 153.775 1112.83 157.71 1112.83 162.316C1112.83 166.923 1111.29 170.881 1108.21 174.192C1105.12 177.503 1101.43 179.158 1097.14 179.158C1092.85 179.158 1089.18 177.503 1086.14 174.192C1083.1 170.881 1081.58 166.923 1081.58 162.316C1081.58 157.71 1083.1 153.775 1086.14 150.512C1089.18 147.25 1092.85 145.618 1097.14 145.618ZM1087.75 210.535H1106.67V368.448H1087.75V210.535ZM1288.54 239.619L1273.52 249.695C1260.55 231.078 1242.85 221.769 1220.4 221.769C1202.43 221.769 1187.52 227.959 1175.67 240.339C1163.83 252.718 1157.9 267.785 1157.9 285.539C1157.9 297.054 1160.63 307.923 1166.08 318.143C1171.54 328.363 1179.01 336.256 1188.48 341.822C1197.96 347.388 1208.6 350.171 1220.41 350.171C1242.13 350.171 1259.84 340.958 1273.52 322.533L1288.54 333.041C1281.48 344.365 1272.02 353.122 1260.17 359.312C1248.33 365.502 1234.8 368.596 1219.6 368.596C1196.44 368.596 1177.2 360.679 1161.86 344.845C1146.53 329.01 1138.86 309.769 1138.86 287.122C1138.86 271.767 1142.46 257.54 1149.66 244.441C1156.85 231.341 1166.69 221.121 1179.16 213.779C1191.64 206.438 1205.65 202.767 1221.21 202.767C1230.87 202.767 1240.23 204.351 1249.31 207.517C1258.38 210.684 1266.1 214.835 1272.45 219.969C1278.79 225.103 1284.16 231.654 1288.54 239.619ZM1308.92 206.805H1328.91L1379.47 328.443L1428.56 206.805H1448.81L1360.96 422.295H1340.98L1369.28 352.768L1308.92 206.805ZM1476.04 154.109H1496.03V347.001H1572.48V367.586H1476.04V154.109ZM1724.58 312.314L1740.4 321.383C1735.31 332.419 1729.31 341.296 1722.43 348.013C1715.54 354.731 1707.81 359.841 1699.23 363.343C1690.64 366.846 1680.94 368.597 1670.12 368.598C1646.16 368.598 1627.42 360.177 1613.92 343.335C1600.42 326.493 1593.67 307.467 1593.67 286.258C1593.67 266.201 1599.39 248.352 1610.84 232.709C1625.32 212.748 1644.77 202.768 1669.18 202.768C1694.13 202.768 1714.11 212.988 1729.14 233.429C1739.78 247.824 1745.14 265.77 1745.23 287.266H1613.12C1613.48 305.691 1618.93 320.782 1629.48 332.538C1640.03 344.294 1653.04 350.172 1668.51 350.172C1676.02 350.172 1683.31 348.756 1690.37 345.925C1697.44 343.094 1703.45 339.376 1708.41 334.769C1713.38 330.163 1718.76 322.678 1724.58 312.314ZM1724.58 269.849C1722.07 259.004 1718.41 250.343 1713.58 243.866C1708.75 237.388 1702.36 232.158 1694.4 228.175C1686.44 224.192 1678.08 222.2 1669.32 222.201C1654.92 222.201 1642.54 227.191 1632.16 237.172C1624.65 244.465 1618.97 255.357 1615.13 269.848L1724.58 269.849ZM1780.37 308.572L1780.1 291.729C1779.83 283.476 1780.15 276.471 1781.04 270.713C1783.01 252.575 1787.3 239.284 1793.92 230.839C1800.35 223.449 1806.93 217.739 1813.63 213.709C1824.72 208.623 1837.37 206.223 1851.59 206.511C1862.68 206.511 1872.94 209.51 1882.37 215.508C1891.8 221.506 1898.53 229.567 1902.56 239.691C1906.58 249.815 1908.59 265.674 1908.59 287.266V368.453H1889.81V293.168C1889.81 274.934 1889.1 262.747 1887.67 256.605C1885.43 246.145 1881.01 238.731 1874.39 234.365C1867.77 229.998 1857.98 227.815 1845.02 227.815C1833.57 227.815 1823.38 231.366 1814.44 238.467C1805.49 245.569 1801.34 255.261 1801.96 267.546C1800.26 275.415 1799.41 289.762 1799.41 310.586V368.454H1780.37L1780.37 308.572ZM2022.87 224.066L2010.79 237.598C2000.6 227.041 1990.72 221.763 1981.15 221.763C1974.98 221.763 1969.71 223.923 1965.33 228.241C1960.95 232.559 1958.75 237.694 1958.75 243.643C1958.75 248.633 1960.59 253.432 1964.25 258.038C1967.83 262.932 1975.39 268.546 1986.92 274.88C2001.05 282.653 2010.62 290.187 2015.62 297.48C2020.54 304.869 2023 313.171 2023 322.383C2023 335.243 2018.78 346.159 2010.33 355.132C2001.88 364.104 1991.3 368.591 1978.6 368.591C1970.11 368.591 1962 366.648 1954.26 362.761C1946.53 358.874 1940.16 353.428 1935.15 346.423L1947.09 331.884C1956.74 343.592 1966.98 349.446 1977.8 349.446C1985.31 349.446 1991.73 346.831 1997.05 341.6C2002.37 336.37 2005.03 330.253 2005.03 323.247C2005.03 317.393 2003.28 312.211 1999.8 307.701C1996.31 303.19 1988.4 297.529 1976.06 290.715C1962.73 283.518 1953.7 276.273 1948.96 268.979C1944.13 261.878 1941.72 253.721 1941.72 244.508C1941.72 232.512 1945.54 222.556 1953.19 214.638C1960.83 206.721 1970.42 202.763 1981.96 202.763C1995.46 202.763 2009.1 209.863 2022.87 224.066Z" fill="#111111"/>
</svg>
